<svg xmlns="http://www.w3.org/2000/svg" viewBox="0 0 50 50" style="max-width:100%" height="100%">
    <path style="line-height:normal;text-indent:0;text-align:start;text-decoration-line:none;text-decoration-style:solid;text-decoration-color:#ffc962;text-transform:none;block-progression:tb;isolation:auto;mix-blend-mode:normal" d="M 25 2 C 13.413593 2 4 11.413593 4 23 C 4 31.602252 9.1802923 39.010728 16.599609 42.251953 A 1.0001 1.0001 0 1 0 17.400391 40.419922 C 10.691708 37.489147 6 30.799748 6 23 C 6 12.494407 14.494407 4 25 4 C 35.505593 4 44 12.494407 44 23 C 44 30.799748 39.308292 37.489147 32.599609 40.419922 A 1.0001 1.0001 0 1 0 33.400391 42.251953 C 40.819708 39.010728 46 31.602252 46 23 C 46 11.413593 36.586407 2 25 2 z M 25 7 C 16.178937 7 9 14.178937 9 23 C 9 28.688004 11.979987 33.699191 16.464844 36.535156 A 1.0008024 1.0008024 0 0 0 17.535156 34.84375 C 13.610013 32.361715 11 27.989996 11 23 C 11 15.261063 17.261063 9 25 9 C 32.738937 9 39 15.261063 39 23 C 39 27.989996 36.389987 32.361715 32.464844 34.84375 A 1.0008024 1.0008024 0 0 0 33.535156 36.535156 C 38.020013 33.699191 41 28.688004 41 23 C 41 14.178937 33.821063 7 25 7 z M 25 18 C 22.250421 18 20 20.250421 20 23 C 20 25.749579 22.250421 28 25 28 C 27.749579 28 30 25.749579 30 23 C 30 20.250421 27.749579 18 25 18 z M 25 20 C 26.668699 20 28 21.331301 28 23 C 28 24.668699 26.668699 26 25 26 C 23.331301 26 22 24.668699 22 23 C 22 21.331301 23.331301 20 25 20 z M 25 30 C 22.164472 30 20 32.610312 20 35.636719 C 20 39.734156 21.378906 45.505859 21.378906 45.505859 L 21.361328 45.410156 C 21.361328 45.410156 21.465193 46.255229 21.945312 47.123047 C 22.425435 47.990862 23.461575 49 25 49 C 26.538425 49 27.574566 47.990865 28.054688 47.123047 C 28.534807 46.255229 28.638672 45.410156 28.638672 45.410156 L 28.621094 45.505859 C 28.621094 45.505859 30 39.734156 30 35.636719 C 30.000002 32.610315 27.835528 30 25 30 z M 25 32 C 26.582472 32 28 33.543125 28 35.636719 C 28 39.267282 26.673828 45.048828 26.673828 45.048828 L 26.662109 45.095703 L 26.65625 45.144531 C 26.65625 45.144531 26.57782 45.660615 26.304688 46.154297 C 26.0316 46.647982 25.742575 47 25 47 C 24.257425 47 23.968443 46.647979 23.695312 46.154297 C 23.422183 45.660615 23.34375 45.144531 23.34375 45.144531 L 23.337891 45.095703 L 23.326172 45.048828 C 23.326214 45.048825 22 39.267282 22 35.636719 C 22 33.543125 23.417528 32 25 32 z" font-weight="400" font-family="sans-serif" white-space="normal" overflow="visible" fill="#ffc962"></path>
</svg>