<svg xmlns="http://www.w3.org/2000/svg" xmlns:xlink="http://www.w3.org/1999/xlink" version="1.1" x="0px" y="0px" viewBox="0 0 283.465 283.464" enable-background="new 0 0 283.465 283.464" xml:space="preserve" style="max-width:100%" height="100%"><path d="M264.989,118.347L144.416,74.056c-0.544-0.199-1.139-0.2-1.682-0.003L20.93,118.344c-0.953,0.347-1.595,1.244-1.611,2.258  c-0.019,1.014,0.59,1.934,1.53,2.313l14.288,5.773v20.264c-2.432,0.975-4.155,3.351-4.155,6.125c0,3.639,2.962,6.6,6.604,6.6  c3.64,0,6.601-2.961,6.601-6.6c0-2.774-1.723-5.15-4.152-6.125v-18.285l22.195,8.967v41.993c0,9.043,8.843,17.33,24.9,23.333  c15.299,5.721,35.59,8.872,57.135,8.872c21.543,0,41.834-3.151,57.134-8.872c16.058-6.004,24.9-14.291,24.9-23.333v-42.889  l38.772-15.826c0.937-0.382,1.542-1.3,1.523-2.311C266.576,119.591,265.938,118.695,264.989,118.347z M37.585,156.78  c-0.941,0-1.707-0.764-1.707-1.703c0-0.939,0.766-1.705,1.707-1.705c0.939,0,1.703,0.765,1.703,1.705  C39.288,156.016,38.524,156.78,37.585,156.78z M221.401,181.627c0,13.188-30.996,27.308-77.138,27.308  c-46.143,0-77.139-14.121-77.139-27.308v-40.014l75.528,30.516c0.295,0.119,0.606,0.179,0.918,0.179  c0.314,0,0.629-0.061,0.925-0.182l76.905-31.39V181.627z M143.566,167.216L28.6,120.766l114.968-41.805l113.805,41.804  L143.566,167.216z" style="" fill="#ffb72f"></path><g style="" fill="#ffb72f"><path d="M36.863,105.483c-1,0-1.939-0.617-2.302-1.612c-0.462-1.271,0.192-2.676,1.464-3.138l69.782-25.404   c1.271-0.462,2.677,0.192,3.139,1.463c0.463,1.271-0.192,2.676-1.463,3.139L37.7,105.335   C37.424,105.436,37.141,105.483,36.863,105.483z" style="" fill="#ffb72f"></path></g></svg>