<svg xmlns="http://www.w3.org/2000/svg" xmlns:xlink="http://www.w3.org/1999/xlink" version="1.1" x="0px" y="0px" viewBox="0 0 100 100" style="enable-background:new 0 0 100 100;max-width:100%" xml:space="preserve" height="100%"><path d="M90.1666641,37.9223328c0-11.2160225-9.1252136-20.3406525-20.3406525-20.3406525  c-10.7136879,0-19.498867,8.3320789-20.2653313,18.8541718H12.0231981c-1.2074738,0-2.1898651,0.9823914-2.1898651,2.1886902  v41.6050873c0,1.2062988,0.9823914,2.1886902,2.1898651,2.1886902h58.9387779c1.2074738,0,2.1898651-0.9823914,2.1898651-2.1886902  V57.9702034C82.9290085,56.3694954,90.1666641,47.9663467,90.1666641,37.9223328z M70.7509613,38.836731v6.8052292H12.2342129  V38.836731H70.7509613z M56.4764709,36.4358521c0.5224075-0.9210663,1.5005493-1.5509605,2.6323357-1.5509605  c1.1325912,0,2.1103668,0.6298943,2.6326294,1.5509605H56.4764709z M12.2342129,80.0174408V48.0428391h58.5167465v31.9746017  H12.2342129z M73.1518402,55.5454407v-2.6168785c1.3245544-1.0285492,2.1124954-2.60149,2.1124954-4.2901955  c0-1.6988869-0.7852249-3.2655983-2.1124954-4.2923164v-5.721508c0-1.2062988-0.9823914-2.1886902-2.1898651-2.1886902h-6.6474075  c-0.6515808-2.2733917-2.7258263-3.9518394-5.205761-3.9518394c-2.4799385,0-4.5538177,1.6784477-5.2052536,3.9518394h-1.9419937  c0.7598724-9.1974621,8.4742966-16.4532928,17.8644524-16.4532928c9.8919067,0,17.9397736,8.0478687,17.9397736,17.9397736  C87.7657852,46.6483078,81.5772629,53.9763832,73.1518402,55.5454407z" style="" fill="#ffb72f"></path><path d="M69.8260117,21.7673931c-2.9987564,0-5.4383163,2.4395657-5.4383163,5.4383202  c0,2.998167,2.4395599,5.4377346,5.4383163,5.4377346s5.438324-2.4395676,5.438324-5.4377346  C75.2643356,24.2069588,72.8247681,21.7673931,69.8260117,21.7673931z M69.8260117,30.2425671  c-1.6752243,0-3.0374374-1.3622169-3.0374374-3.0368538s1.3622131-3.0374413,3.0374374-3.0374413  s3.0374451,1.3628044,3.0374451,3.0374413S71.501236,30.2425671,69.8260117,30.2425671z" style="" fill="#ffb72f"></path><path d="M80.5420456,32.4840126c-2.9987564,0-5.4383163,2.4395676-5.4383163,5.4383202  c0,2.9987564,2.4395599,5.4383202,5.4383163,5.4383202s5.438324-2.4395638,5.438324-5.4383202  C85.9803696,34.9235802,83.540802,32.4840126,80.5420456,32.4840126z M80.5420456,40.959774  c-1.6752243,0-3.0374374-1.3622169-3.0374374-3.0374413c0-1.6752205,1.3622131-3.0374413,3.0374374-3.0374413  s3.0374451,1.3622208,3.0374451,3.0374413C83.5794907,39.5975571,82.2172699,40.959774,80.5420456,40.959774z" style="" fill="#ffb72f"></path><circle cx="16.5604" cy="42.1951828" r="1.7820859" style="" fill="#ffb72f"></circle><circle cx="22.2779484" cy="42.1951828" r="1.7820859" style="" fill="#ffb72f"></circle><circle cx="27.995369" cy="42.1951828" r="1.7820675" style="" fill="#ffb72f"></circle><path d="M46.957283,62.939312l-9.7289543-5.6176834c-0.3716202-0.2133598-0.8288193-0.2133598-1.2004395,0  c-0.3716202,0.2145309-0.6002197,0.6107712-0.6002197,1.0398331v11.235363c0,0.4290695,0.2285995,0.8253021,0.6002197,1.0398331  c0.1858101,0.1066818,0.3927231,0.1606064,0.6002197,0.1606064s0.4144096-0.0539246,0.6002197-0.1606064l9.7289543-5.6176758  c0.3716202-0.2145386,0.6002197-0.6107712,0.6002197-1.0398369S47.3289032,63.1538429,46.957283,62.939312z M37.8285484,67.5159836  v-7.0748558l6.127636,3.5380173L37.8285484,67.5159836z" style="" fill="#ffb72f"></path></svg>