<svg xmlns="http://www.w3.org/2000/svg" xmlns:xlink="http://www.w3.org/1999/xlink" version="1.1" x="0px" y="0px" viewBox="0 0 100 100" style="enable-background:new 0 0 100 100;max-width:100%" xml:space="preserve" height="100%"><style type="text/css" style="" fill="#ffb72f">
	.st0{fill:none;stroke:#000000;stroke-width:2;stroke-linecap:round;stroke-linejoin:round;stroke-miterlimit:10;}
	.st1{fill:none;stroke:#000000;stroke-width:2;stroke-linecap:round;stroke-miterlimit:10;}
</style><path d="M75.123,16.08c-9.303-3.698-19.008-0.19-25.117,8.928c-6.111-9.119-15.817-12.622-25.118-8.928  c-9.04,3.592-17.23,14.369-13.852,29.541c3.003,13.494,13.353,23.594,21.506,29.689c8.786,6.568,16.744,9.93,17.079,10.069  c0.124,0.052,0.254,0.077,0.386,0.077s0.262-0.025,0.386-0.077c0.334-0.14,8.292-3.501,17.077-10.069  c8.153-6.096,18.503-16.194,21.508-29.688C92.355,30.448,84.164,19.672,75.123,16.08z M87.024,45.187  C81.849,68.43,53.652,81.734,50.005,83.365c-3.646-1.629-31.842-14.919-37.018-38.179c-3.124-14.029,4.361-23.959,12.638-27.248  c2.051-0.814,4.346-1.302,6.736-1.302c5.76,0,12.065,2.834,16.785,10.754c0.36,0.605,1.357,0.605,1.718,0  c6.676-11.206,16.525-12.231,23.52-9.452C82.662,21.228,90.148,31.157,87.024,45.187z" style="" fill="#ffb72f"></path><path d="M74.403,47.183H66c-0.433,0-0.817,0.278-0.951,0.69l-1.325,4.066l-3.561-17.53c-0.091-0.447-0.473-0.776-0.929-0.8  c-0.452-0.03-0.869,0.266-1.005,0.701l-3.366,10.79l-0.78-2.083c-0.151-0.405-0.54-0.669-0.979-0.648  c-0.432,0.019-0.804,0.313-0.92,0.729l-2.439,8.73l-4.071-17.448c-0.108-0.465-0.544-0.816-1.01-0.771  c-0.478,0.017-0.877,0.37-0.952,0.843l-2.583,16.36l-3.042-12.316c-0.111-0.451-0.48-0.737-0.985-0.76  c-0.465,0.007-0.865,0.334-0.963,0.789l-1.871,8.657H24.74c-0.552,0-1,0.447-1,1s0.448,1,1,1h10.333  c0.471,0,0.878-0.328,0.978-0.789l1.128-5.224l3.193,12.928c0.11,0.447,0.513,0.76,0.97,0.76c0.014,0,0.029,0,0.043-0.001  c0.475-0.021,0.871-0.373,0.945-0.843l2.557-16.193l3.795,16.265c0.104,0.444,0.496,0.763,0.952,0.772  c0.485-0.013,0.862-0.291,0.984-0.73l2.665-9.537l0.728,1.943c0.15,0.4,0.529,0.657,0.964,0.649  c0.427-0.013,0.799-0.294,0.927-0.702l3.075-9.857l3.542,17.434c0.09,0.445,0.469,0.773,0.923,0.799  c0.447,0.028,0.867-0.257,1.008-0.688l2.275-6.984h7.677c0.552,0,1-0.447,1-1S74.956,47.183,74.403,47.183z" style="" fill="#ffb72f"></path></svg>