<svg xmlns="http://www.w3.org/2000/svg" xmlns:xlink="http://www.w3.org/1999/xlink" version="1.1" x="0px" y="0px" viewBox="0 0 100 100" enable-background="new 0 0 100 100" xml:space="preserve" style="max-width:100%" height="100%"><g style="" fill="#ffb72f"><g display="none" style="" fill="currentColor"><g display="inline" style="" fill="currentColor"><g style="" fill="#ffb72f"><circle cx="38.688" cy="61.952" r="4.909" style="" fill="#ffb72f"></circle></g><g style="" fill="#ffb72f"><circle cx="79.068" cy="61.952" r="4.908" style="" fill="#ffb72f"></circle></g><path d="M18.542,35.289h-8.531c-0.548,0-0.993-0.444-0.993-0.993c0-0.548,0.445-0.993,0.993-0.993h8.531     c0.548,0,0.993,0.445,0.993,0.993C19.535,34.845,19.09,35.289,18.542,35.289z" style="" fill="currentColor"></path><path d="M20.98,41.383h-5.282c-0.549,0-0.993-0.444-0.993-0.993c0-0.548,0.444-0.993,0.993-0.993h5.282     c0.548,0,0.993,0.445,0.993,0.993C21.974,40.938,21.529,41.383,20.98,41.383z" style="" fill="#ffb72f"></path><path d="M89.99,68.723H13.337c-0.548,0-0.993-0.445-0.993-0.994s0.445-0.994,0.993-0.994H89.99c0.548,0,0.992,0.445,0.992,0.994     S90.538,68.723,89.99,68.723z" style="" fill="#ffb72f"></path><path d="M88.879,31H60v2h28.881C89.324,33,90,32.911,90,33.357v25.981C90,59.785,89.324,60,88.879,60h-0.748     c-0.004,0-0.092-0.129-0.1-0.163c-0.943-4.144-4.711-7.114-8.957-7.114c-4.149,0-7.799,2.744-8.877,6.754     C70.086,60.023,69.689,60,69.611,60H60v2h9.629c0.812,0,2.414-0.307,2.777-2.122c0.795-2.948,3.543-4.954,6.668-4.954     c3.197,0,6.033,2.318,6.744,5.438c0.166,1.354,1.283,2.031,2.31,2.031c0.024,0,0.085,0.015,0.11,0.012l0.662,0.009     c1.697,0,3.1-1.374,3.1-3.072V34.357C92,32.659,90.576,31,88.879,31z" style="" fill="currentColor"></path><path d="M62,60H48.15c-0.079,0-0.474,0.041-0.586-0.506c-1.077-4.008-4.727-6.771-8.876-6.771c-4.247,0-8.014,2.952-8.958,7.096     C29.723,59.854,29.635,60,29.631,60h-0.748C28.437,60,28,59.785,28,59.339V33.357C28,32.911,28.437,33,28.881,33H62v-2H28.883     C27.185,31,26,32.659,26,34.357v24.981c0,1.698,1.283,3.079,2.98,3.079l0.591-0.002c0.025,0.002,0.061,0.003,0.086,0.003     c1.025,0,2.13-0.652,2.298-2.005c0.71-3.12,3.541-5.386,6.738-5.386c3.124,0,5.869,1.898,6.664,4.85     C45.721,61.693,47.319,62,48.132,62H62V60z" style="" fill="currentColor"></path><path fill="none" stroke="currentColor" stroke-width="2" stroke-miterlimit="10" d="M40,43c0,1.104-0.896,2-2,2h-4     c-1.104,0-2-0.896-2-2v-4c0-1.104,0.896-2,2-2h4c1.104,0,2,0.896,2,2V43z" style=""></path><path fill="none" stroke="currentColor" stroke-width="2" stroke-miterlimit="10" d="M52,43c0,1.104-0.896,2-2,2h-4     c-1.104,0-2-0.896-2-2v-4c0-1.104,0.896-2,2-2h4c1.104,0,2,0.896,2,2V43z" style=""></path><path fill="none" stroke="currentColor" stroke-width="2" stroke-miterlimit="10" d="M64,43c0,1.104-0.896,2-2,2h-4     c-1.104,0-2-0.896-2-2v-4c0-1.104,0.896-2,2-2h4c1.104,0,2,0.896,2,2V43z" style=""></path><path fill="none" stroke="currentColor" stroke-width="2" stroke-miterlimit="10" d="M76,43c0,1.104-0.896,2-2,2h-4     c-1.104,0-2-0.896-2-2v-4c0-1.104,0.896-2,2-2h4c1.104,0,2,0.896,2,2V43z" style=""></path><path fill="none" stroke="currentColor" stroke-width="2" stroke-miterlimit="10" d="M87,48c0,1.104-0.896,2-2,2h-4     c-1.104,0-2-0.896-2-2v-9c0-1.104,0.896-2,2-2h4c1.104,0,2,0.896,2,2V48z" style=""></path></g><g display="inline" style="" fill="currentColor"><g style="" fill="currentColor"><g style="" fill="currentColor"><path d="M78.5,79h-45c-0.552,0-1-0.447-1-1s0.448-1,1-1h45c0.553,0,1,0.447,1,1S79.053,79,78.5,79z" style="" fill="currentColor"></path></g><g style="" fill="currentColor"><circle cx="55.866" cy="84.366" r="2.675" style="" fill="currentColor"></circle></g><g style="" fill="currentColor"><path d="M78.5,21h-45c-0.552,0-1-0.448-1-1s0.448-1,1-1h45c0.553,0,1,0.448,1,1S79.053,21,78.5,21z" style="" fill="currentColor"></path></g><g style="" fill="currentColor"><g style="" fill="currentColor"><circle cx="49.18" cy="14.979" r="1.07" style="" fill="currentColor"></circle></g><g style="" fill="currentColor"><path d="M63.5,15c0,0.552-0.447,1-1,1h-9c-0.552,0-1-0.448-1-1l0,0c0-0.552,0.448-1,1-1h9C63.053,14,63.5,14.448,63.5,15        L63.5,15z" style="" fill="currentColor"></path></g></g><g style="" fill="currentColor"><path d="M72.081,91H39.919c-4.091,0-7.419-3.328-7.419-7.419V15.419C32.5,11.328,35.828,8,39.919,8h32.162       c4.091,0,7.419,3.328,7.419,7.419v68.162C79.5,87.672,76.172,91,72.081,91z M39.919,10c-2.988,0-5.419,2.431-5.419,5.419       v68.162c0,2.987,2.431,5.419,5.419,5.419h32.162c2.987,0,5.419-2.432,5.419-5.419V15.419c0-2.988-2.432-5.419-5.419-5.419       H39.919z" style="" fill="currentColor"></path></g></g></g></g><g style="" fill="currentColor"><g display="none" style="" fill="currentColor"><g display="inline" style="" fill="currentColor"><g style="" fill="currentColor"><circle cx="38.688" cy="61.952" r="4.909" style="" fill="currentColor"></circle></g></g><g display="inline" style="" fill="currentColor"><g style="" fill="currentColor"><circle cx="79.068" cy="61.952" r="4.908" style="" fill="currentColor"></circle></g></g><g display="inline" style="" fill="currentColor"><path d="M18.542,35.289h-8.531c-0.548,0-0.993-0.444-0.993-0.993c0-0.548,0.445-0.993,0.993-0.993h8.531      c0.548,0,0.993,0.445,0.993,0.993C19.535,34.845,19.09,35.289,18.542,35.289z" style="" fill="currentColor"></path></g><g display="inline" style="" fill="currentColor"><path d="M20.98,41.383h-5.282c-0.549,0-0.993-0.444-0.993-0.993c0-0.548,0.444-0.993,0.993-0.993h5.282      c0.548,0,0.993,0.445,0.993,0.993C21.974,40.938,21.529,41.383,20.98,41.383z" style="" fill="currentColor"></path></g><g display="inline" style="" fill="currentColor"><path d="M89.99,68.723H13.337c-0.548,0-0.993-0.445-0.993-0.994s0.445-0.994,0.993-0.994H89.99c0.548,0,0.992,0.445,0.992,0.994      S90.538,68.723,89.99,68.723z" style="" fill="currentColor"></path></g><g display="inline" style="" fill="currentColor"><path d="M88.879,31H60v2h28.881C89.324,33,90,32.911,90,33.357v25.981C90,59.785,89.324,60,88.879,60h-0.748      c-0.004,0-0.092-0.129-0.1-0.163c-0.943-4.144-4.711-7.114-8.957-7.114c-4.149,0-7.799,2.744-8.877,6.754      C70.086,60.023,69.689,60,69.611,60H60v2h9.629c0.812,0,2.414-0.307,2.777-2.122c0.795-2.948,3.543-4.954,6.668-4.954      c3.197,0,6.033,2.318,6.744,5.438c0.166,1.354,1.283,2.031,2.31,2.031c0.024,0,0.085,0.015,0.11,0.012l0.662,0.009      c1.697,0,3.1-1.374,3.1-3.072V34.357C92,32.659,90.576,31,88.879,31z" style="" fill="currentColor"></path></g><g display="inline" style="" fill="currentColor"><path d="M62,60H48.15c-0.079,0-0.474,0.041-0.586-0.506c-1.077-4.008-4.727-6.771-8.876-6.771c-4.247,0-8.014,2.952-8.958,7.096      C29.723,59.854,29.635,60,29.631,60h-0.748C28.437,60,28,59.785,28,59.339V33.357C28,32.911,28.437,33,28.881,33H62v-2H28.883      C27.185,31,26,32.659,26,34.357v24.981c0,1.698,1.283,3.079,2.98,3.079l0.591-0.002c0.025,0.002,0.061,0.003,0.086,0.003      c1.025,0,2.13-0.652,2.298-2.005c0.71-3.12,3.541-5.386,6.738-5.386c3.124,0,5.869,1.898,6.664,4.85      C45.721,61.693,47.319,62,48.132,62H62V60z" style="" fill="currentColor"></path></g><g display="inline" style="" fill="currentColor"><path d="M38,46h-4c-1.654,0-3-1.346-3-3v-4c0-1.654,1.346-3,3-3h4c1.654,0,3,1.346,3,3v4C41,44.654,39.654,46,38,46z M34,38      c-0.551,0-1,0.449-1,1v4c0,0.551,0.449,1,1,1h4c0.551,0,1-0.449,1-1v-4c0-0.551-0.449-1-1-1H34z" style="" fill="#ffb72f"></path></g><g display="inline" style="" fill="currentColor"><path d="M50,46h-4c-1.654,0-3-1.346-3-3v-4c0-1.654,1.346-3,3-3h4c1.654,0,3,1.346,3,3v4C53,44.654,51.654,46,50,46z M46,38      c-0.551,0-1,0.449-1,1v4c0,0.551,0.449,1,1,1h4c0.552,0,1-0.449,1-1v-4c0-0.551-0.448-1-1-1H46z" style="" fill="#ffb72f"></path></g><g display="inline" style="" fill="#ffb72f"><path d="M62,46h-4c-1.654,0-3-1.346-3-3v-4c0-1.654,1.346-3,3-3h4c1.654,0,3,1.346,3,3v4C65,44.654,63.654,46,62,46z M58,38      c-0.552,0-1,0.449-1,1v4c0,0.551,0.448,1,1,1h4c0.552,0,1-0.449,1-1v-4c0-0.551-0.448-1-1-1H58z" style="" fill="#ffb72f"></path></g><g display="inline" style="" fill="#ffb72f"><path d="M74,46h-4c-1.654,0-3-1.346-3-3v-4c0-1.654,1.346-3,3-3h4c1.654,0,3,1.346,3,3v4C77,44.654,75.654,46,74,46z M70,38      c-0.552,0-1,0.449-1,1v4c0,0.551,0.448,1,1,1h4c0.552,0,1-0.449,1-1v-4c0-0.551-0.448-1-1-1H70z" style="" fill="#ffb72f"></path></g><g display="inline" style="" fill="#ffb72f"><path d="M85,51h-4c-1.654,0-3-1.346-3-3v-9c0-1.654,1.346-3,3-3h4c1.654,0,3,1.346,3,3v9C88,49.654,86.654,51,85,51z M81,38      c-0.552,0-1,0.449-1,1v9c0,0.551,0.448,1,1,1h4c0.552,0,1-0.449,1-1v-9c0-0.551-0.448-1-1-1H81z" style="" fill="#ffb72f"></path></g></g><g style="" fill="#ffb72f"><g style="" fill="#ffb72f"><g style="" fill="#ffb72f"><g style="" fill="#ffb72f"><path d="M68.5,79h-45c-0.552,0-1-0.447-1-1s0.448-1,1-1h45c0.553,0,1,0.447,1,1S69.053,79,68.5,79z" style="" fill="#ffb72f"></path></g></g><g style="" fill="#ffb72f"><g style="" fill="#ffb72f"><circle cx="45.866" cy="84.366" r="2.675" style="" fill="#ffb72f"></circle></g></g><g style="" fill="#ffb72f"><g style="" fill="#ffb72f"><path d="M68.5,21h-45c-0.552,0-1-0.448-1-1s0.448-1,1-1h45c0.553,0,1,0.448,1,1S69.053,21,68.5,21z" style="" fill="#ffb72f"></path></g></g><g style="" fill="#ffb72f"><g style="" fill="#ffb72f"><g style="" fill="#ffb72f"><circle cx="39.18" cy="14.979" r="1.07" style="" fill="#ffb72f"></circle></g></g><g style="" fill="#ffb72f"><g style="" fill="#ffb72f"><path d="M53.5,15c0,0.552-0.447,1-1,1h-9c-0.552,0-1-0.448-1-1l0,0c0-0.552,0.448-1,1-1h9C53.053,14,53.5,14.448,53.5,15         L53.5,15z" style="" fill="#ffb72f"></path></g></g></g></g></g><g style="" fill="#ffb72f"><path d="M67.5,67.744c0-0.553,0.428-1,0.979-1s1.021,0.447,1.021,1v15.837c0,4.091-3.328,7.419-7.419,7.419H29.919     c-4.091,0-7.419-3.328-7.419-7.419V15.419C22.5,11.328,25.828,8,29.919,8h32.162c4.091,0,7.419,3.328,7.419,7.419v14.8     c0,0.552-0.447,1-1,1c-0.552,0-1-0.448-1-1v-14.8c0-2.988-2.432-5.419-5.419-5.419H29.919c-2.987,0-5.419,2.431-5.419,5.419     v68.162c0,2.987,2.432,5.419,5.419,5.419h32.162c2.987,0,5.419-2.432,5.419-5.419V67.744z" style="" fill="#ffb72f"></path></g></g><g display="none" style="" fill="#ffb72f"><path display="inline" d="M77.147,62.009H58.112c-6.619,0-12.002-5.385-12.002-12.002c0-6.618,5.383-12.001,12.002-12.001    c0.921,0,1.843,0.109,2.75,0.324c1.806-2.18,4.502-3.463,7.341-3.463c5.157,0,9.374,4.117,9.531,9.237    c4.669,0.303,8.376,4.198,8.376,8.943C86.108,57.988,82.088,62.009,77.147,62.009z M58.112,39.886    c-5.582,0-10.122,4.54-10.122,10.122S52.53,60.13,58.112,60.13h19.035c3.904,0,7.081-3.177,7.081-7.082    c0-3.905-3.177-7.082-7.081-7.082c-0.06,0-0.119,0.004-0.18,0.008l-0.162,0.01c-0.272,0.007-0.529-0.092-0.716-0.285    c-0.188-0.194-0.283-0.457-0.262-0.725c0.015-0.202,0.028-0.386,0.028-0.572c0-4.221-3.433-7.655-7.654-7.655    c-2.452,0-4.776,1.196-6.215,3.2c-0.232,0.324-0.644,0.467-1.028,0.354C60.023,40.025,59.065,39.886,58.112,39.886z" style="" fill="#ffb72f"></path></g><g style="" fill="#ffb72f"><path d="M77.052,54.54c0.002-0.025,0-17.981,0-17.981c0-0.302-0.137-0.588-0.371-0.778c-0.234-0.189-0.539-0.263-0.839-0.2    l-16.902,3.622c-0.461,0.099-0.79,0.506-0.79,0.978v15.021c-0.923-0.58-2.099-0.922-3.399-0.922c-0.537,0-1.082,0.058-1.62,0.169    c-1.54,0.32-2.908,1.065-3.851,2.099c-1.024,1.123-1.441,2.45-1.172,3.736c0.429,2.069,2.613,3.515,5.312,3.515    c0.536,0,1.082-0.058,1.619-0.169c1.54-0.32,2.908-1.065,3.852-2.099c0.912-0.999,1.233-1.983,1.233-3.312    c0.006-0.044,0-17.229,0-17.229l14.929-3.193v13.782c-0.92-0.573-2.088-0.911-3.38-0.911c-0.536,0-1.081,0.057-1.619,0.168    c-1.54,0.321-2.907,1.066-3.851,2.1c-1.024,1.122-1.441,2.449-1.174,3.735c0.43,2.069,2.614,3.515,5.312,3.515    c0.537,0,1.083-0.057,1.621-0.169c1.54-0.32,2.907-1.065,3.851-2.098C76.742,56.898,77.052,55.922,77.052,54.54z M57.413,60.182    c-0.662,0.725-1.65,1.254-2.782,1.489c-0.404,0.084-0.812,0.127-1.212,0.127c-1.74,0-3.12-0.79-3.354-1.922    c-0.134-0.642,0.112-1.345,0.691-1.98c0.662-0.725,1.649-1.254,2.781-1.489c0.404-0.084,0.812-0.127,1.213-0.127    c1.74,0,3.12,0.791,3.355,1.923C58.238,58.844,57.993,59.546,57.413,60.182z M74.336,56.568c-0.662,0.725-1.649,1.253-2.781,1.488    c-0.405,0.084-0.813,0.127-1.214,0.127c-1.74,0-3.119-0.79-3.354-1.922c-0.133-0.642,0.113-1.345,0.692-1.979    c0.662-0.725,1.65-1.254,2.782-1.489c0.403-0.085,0.812-0.127,1.211-0.127c1.741,0,3.121,0.79,3.355,1.922    C75.161,55.229,74.916,55.933,74.336,56.568z" style="" fill="#ffb72f"></path><path d="M60.129,58.174" style="" fill="#ffb72f"></path></g><g display="none" style="" fill="#ffb72f"><g display="inline" style="" fill="#ffb72f"><path d="M68.46,62.229c-0.839,0-1.818-0.631-1.818-2.406v-2.537H55.584c-3.363,0-6.099-2.735-6.099-6.097v-9.906     c0-3.363,2.735-6.099,6.099-6.099H76.4c3.363,0,6.1,2.736,6.1,6.099v9.906c0,3.361-2.736,6.097-6.1,6.097h-3.009l-3.032,3.945     c-0.026,0.035-0.056,0.067-0.087,0.099C69.675,61.927,69.064,62.229,68.46,62.229z M55.584,37.185     c-2.26,0-4.099,1.839-4.099,4.099v9.906c0,2.259,1.839,4.097,4.099,4.097h12.058c0.553,0,1,0.447,1,1v3.537     c0,0.107,0.006,0.198,0.016,0.271c0.047-0.036,0.101-0.082,0.159-0.139l3.289-4.279c0.189-0.246,0.482-0.391,0.793-0.391H76.4     c2.261,0,4.1-1.838,4.1-4.097v-9.906c0-2.26-1.839-4.099-4.1-4.099H55.584z" style="" fill="currentColor"></path></g></g></g><g display="none" style="" fill="#ffb72f"><g style="" fill="currentColor"><g display="inline" style="" fill="currentColor"><circle cx="38.688" cy="61.952" r="4.909" style="" fill="#ffb72f"></circle></g><g display="inline" style="" fill="#ffb72f"><circle cx="79.068" cy="61.952" r="4.908" style="" fill="currentColor"></circle></g><path display="inline" d="M18.542,35.289h-8.531c-0.548,0-0.993-0.444-0.993-0.993c0-0.548,0.445-0.993,0.993-0.993h8.531    c0.548,0,0.993,0.445,0.993,0.993C19.535,34.845,19.09,35.289,18.542,35.289z" style="" fill="currentColor"></path><path display="inline" d="M20.98,41.383h-5.282c-0.549,0-0.993-0.444-0.993-0.993c0-0.548,0.444-0.993,0.993-0.993h5.282    c0.548,0,0.993,0.445,0.993,0.993C21.974,40.938,21.529,41.383,20.98,41.383z" style="" fill="currentColor"></path><path display="inline" d="M89.99,68.723H13.337c-0.548,0-0.993-0.445-0.993-0.994s0.445-0.994,0.993-0.994H89.99    c0.548,0,0.992,0.445,0.992,0.994S90.538,68.723,89.99,68.723z" style="" fill="#ffb72f"></path><path display="inline" d="M88.879,31H60v2h28.881C89.324,33,90,32.911,90,33.357v25.981C90,59.785,89.324,60,88.879,60h-0.748    c-0.004,0-0.092-0.129-0.1-0.163c-0.943-4.144-4.711-7.114-8.957-7.114c-4.149,0-7.799,2.744-8.877,6.754    C70.086,60.023,69.689,60,69.611,60H60v2h9.629c0.812,0,2.414-0.307,2.777-2.122c0.795-2.948,3.543-4.954,6.668-4.954    c3.197,0,6.033,2.318,6.744,5.438c0.166,1.354,1.283,2.031,2.31,2.031c0.024,0,0.085,0.015,0.11,0.012l0.662,0.009    c1.697,0,3.1-1.374,3.1-3.072V34.357C92,32.659,90.576,31,88.879,31z" style="" fill="#ffb72f"></path><path display="inline" d="M62,60H48.15c-0.079,0-0.474,0.041-0.586-0.506c-1.077-4.008-4.727-6.771-8.876-6.771    c-4.247,0-8.014,2.952-8.958,7.096C29.723,59.854,29.635,60,29.631,60h-0.748C28.437,60,28,59.785,28,59.339V33.357    C28,32.911,28.437,33,28.881,33H62v-2H28.883C27.185,31,26,32.659,26,34.357v24.981c0,1.698,1.283,3.079,2.98,3.079l0.591-0.002    c0.025,0.002,0.061,0.003,0.086,0.003c1.025,0,2.13-0.652,2.298-2.005c0.71-3.12,3.541-5.386,6.738-5.386    c3.124,0,5.869,1.898,6.664,4.85C45.721,61.693,47.319,62,48.132,62H62V60z" style="" fill="#ffb72f"></path><path display="inline" fill="none" stroke="currentColor" stroke-width="2" stroke-miterlimit="10" d="M40,43c0,1.104-0.896,2-2,2h-4    c-1.104,0-2-0.896-2-2v-4c0-1.104,0.896-2,2-2h4c1.104,0,2,0.896,2,2V43z" style=""></path><path display="inline" fill="none" stroke="currentColor" stroke-width="2" stroke-miterlimit="10" d="M52,43c0,1.104-0.896,2-2,2h-4    c-1.104,0-2-0.896-2-2v-4c0-1.104,0.896-2,2-2h4c1.104,0,2,0.896,2,2V43z" style=""></path><path display="inline" fill="none" stroke="currentColor" stroke-width="2" stroke-miterlimit="10" d="M64,43c0,1.104-0.896,2-2,2h-4    c-1.104,0-2-0.896-2-2v-4c0-1.104,0.896-2,2-2h4c1.104,0,2,0.896,2,2V43z" style=""></path><path display="inline" fill="none" stroke="currentColor" stroke-width="2" stroke-miterlimit="10" d="M76,43c0,1.104-0.896,2-2,2h-4    c-1.104,0-2-0.896-2-2v-4c0-1.104,0.896-2,2-2h4c1.104,0,2,0.896,2,2V43z" style=""></path><path display="inline" fill="none" stroke="#ffb72f" stroke-width="2" stroke-miterlimit="10" d="M87,48c0,1.104-0.896,2-2,2h-4    c-1.104,0-2-0.896-2-2v-9c0-1.104,0.896-2,2-2h4c1.104,0,2,0.896,2,2V48z" style=""></path></g><g display="inline" style="" fill="#ffb72f"><g style="" fill="currentColor"><g style="" fill="currentColor"><path d="M68.723,79h-45c-0.552,0-1-0.447-1-1s0.448-1,1-1h45c0.553,0,1,0.447,1,1S69.275,79,68.723,79z" style="" fill="currentColor"></path></g><g style="" fill="#ffb72f"><circle cx="46.088" cy="84.366" r="2.675" style="" fill="currentColor"></circle></g><g style="" fill="#ffb72f"><path d="M68.723,21h-45c-0.552,0-1-0.448-1-1s0.448-1,1-1h45c0.553,0,1,0.448,1,1S69.275,21,68.723,21z" style="" fill="currentColor"></path></g><g style="" fill="currentColor"><g style="" fill="currentColor"><circle cx="39.402" cy="14.979" r="1.07" style="" fill="currentColor"></circle></g><g style="" fill="currentColor"><path d="M53.723,15c0,0.552-0.447,1-1,1h-9c-0.552,0-1-0.448-1-1l0,0c0-0.552,0.448-1,1-1h9C53.275,14,53.723,14.448,53.723,15       L53.723,15z" style="" fill="#ffb72f"></path></g></g></g></g><path display="inline" d="M62.303,8H30.141c-4.091,0-7.419,3.328-7.419,7.419v68.162c0,4.091,3.328,7.419,7.419,7.419h32.162   c4.092,0,7.42-3.328,7.42-7.419V15.419C69.723,11.328,66.395,8,62.303,8z M67.723,83.581c0,2.987-2.432,5.419-5.42,5.419H30.141   c-2.987,0-5.419-2.432-5.419-5.419V15.419c0-2.988,2.432-5.419,5.419-5.419h32.162c2.988,0,5.42,2.431,5.42,5.419V83.581z" style="" fill="currentColor"></path></g><g display="none" style="" fill="#ffb72f"><g display="inline" style="" fill="currentColor"><circle cx="38.056" cy="41.167" r="1.6" style="" fill="#ffb72f"></circle><circle cx="54.056" cy="41.167" r="1.601" style="" fill="currentColor"></circle><path fill="none" stroke="currentColor" stroke-width="2" stroke-linecap="round" stroke-linejoin="round" stroke-miterlimit="10" d="    M34.414,52.15c6.527,6.526,17.09,6.527,23.616,0" style=""></path></g></g></svg>